<svg width="76" height="86" viewBox="0 0 76 86" fill="none" xmlns="http://www.w3.org/2000/svg">
<ellipse cx="35.4156" cy="34.8101" rx="34.9683" ry="34.8101" fill="white"/>
<ellipse cx="35.4156" cy="34.8101" rx="34.9683" ry="34.8101" fill="white"/>
<path d="M35.416 0C43.9508 9.61398e-05 51.77 3.04578 57.8408 8.10254C54.4636 7.02125 50.8632 6.43462 47.125 6.43457C27.8125 6.43457 12.1562 22.02 12.1562 41.2451C12.1564 51.9739 17.0341 61.5667 24.7002 67.9521C10.6301 63.4476 0.447453 50.3142 0.447266 34.8105C0.447266 15.5854 16.1035 0 35.416 0Z" fill="white"/>
<path d="M35.416 0C43.9508 9.61398e-05 51.77 3.04578 57.8408 8.10254C54.4636 7.02125 50.8632 6.43462 47.125 6.43457C27.8125 6.43457 12.1562 22.02 12.1562 41.2451C12.1564 51.9739 17.0341 61.5667 24.7002 67.9521C10.6301 63.4476 0.447453 50.3142 0.447266 34.8105C0.447266 15.5854 16.1035 0 35.416 0Z" fill="#F4F4F4"/>
<path d="M65.5896 29.1083C65.759 28.4116 66.4455 27.9612 67.1355 28.1563C68.2436 28.4697 69.2964 28.9204 70.2609 29.4961C71.5803 30.2836 72.7086 31.2895 73.5812 32.4564C74.4538 33.6233 75.0538 34.9283 75.3468 36.2969C75.6398 37.6655 75.6202 39.071 75.289 40.433C74.9577 41.795 74.3215 43.0869 73.4164 44.235C72.5114 45.3831 71.3554 46.3648 70.0143 47.1241C68.6733 47.8834 67.1735 48.4054 65.6006 48.6604C64.4989 48.839 63.3765 48.8841 62.2649 48.796C61.4907 48.7347 61.0017 47.9747 61.1852 47.22C61.3546 46.5233 62.039 46.0896 62.7548 46.1318C63.5155 46.1766 64.2815 46.1381 65.0345 46.0161C66.2083 45.8258 67.3276 45.4362 68.3283 44.8696C69.3291 44.3029 70.1918 43.5703 70.8672 42.7135C71.5426 41.8568 72.0175 40.8926 72.2647 39.8762C72.5118 38.8597 72.5265 37.8109 72.3078 36.7895C72.0892 35.7681 71.6414 34.7942 70.9902 33.9234C70.339 33.0526 69.497 32.3019 68.5124 31.7142C67.9261 31.3643 67.2961 31.0763 66.6357 30.8551C65.8992 30.6084 65.406 29.863 65.5896 29.1083Z" fill="#4880EE"/>
<path d="M66.2097 21.1633C66.8451 20.8817 67.1329 20.1361 66.8263 19.5124C63.5888 12.9246 58.3375 7.51219 51.8112 4.06349C44.9121 0.417759 36.9855 -0.823596 29.2951 0.537355C21.6048 1.89831 14.5936 5.7832 9.37942 11.5726C4.16525 17.362 1.04833 24.7226 0.525646 32.4807C0.00296274 40.2389 2.10461 47.9478 6.49549 54.3785C10.8864 60.8092 17.3137 65.5913 24.7526 67.9623C32.1915 70.3334 40.2136 70.1568 47.54 67.4609C54.4706 64.9105 60.401 60.2446 64.4932 54.1459C64.8804 53.5688 64.6948 52.7915 64.1026 52.4278C63.5137 52.0661 62.7453 52.2502 62.3588 52.8231C58.5622 58.4508 53.076 62.7568 46.6688 65.1146C39.8689 67.6168 32.4231 67.7807 25.5188 65.58C18.6145 63.3794 12.649 58.9409 8.57369 52.9723C4.49834 47.0038 2.54772 39.8488 3.03284 32.6481C3.51797 25.4475 6.4109 18.6158 11.2504 13.2425C16.0899 7.86907 22.5972 4.26335 29.7349 3.0002C36.8727 1.73705 44.2297 2.8892 50.633 6.27295C56.666 9.46098 61.5251 14.457 64.5329 20.5381C64.8395 21.1581 65.5773 21.4435 66.2097 21.1633Z" fill="#4880EE"/>
<path d="M27.0295 41.3502C27.5538 41.3502 27.9787 41.7988 27.9788 42.3522C27.9788 42.9056 27.5539 43.3541 27.0295 43.3541C26.5053 43.354 26.0803 42.9056 26.0803 42.3522C26.0804 41.7988 26.5053 41.3503 27.0295 41.3502Z" fill="#F4F4F4"/>
<path d="M27.0295 41.3502C27.5538 41.3502 27.9787 41.7988 27.9788 42.3522C27.9788 42.9056 27.5539 43.3541 27.0295 43.3541C26.5053 43.354 26.0803 42.9056 26.0803 42.3522C26.0804 41.7988 26.5053 41.3503 27.0295 41.3502Z" stroke="#F4F4F4"/>
<path d="M66.2097 21.1633C66.8451 20.8817 67.1329 20.1362 66.8263 19.5124C64.5829 14.9476 61.3601 10.9222 57.3799 7.72374C53.0713 4.26151 47.9985 1.86731 42.5787 0.738178C37.159 -0.390949 31.5474 -0.222719 26.2058 1.22902C20.8642 2.68077 15.9452 5.37452 11.8538 9.08857C7.76236 12.8026 4.61541 17.4308 2.67195 22.5922C0.728484 27.7536 0.0440731 33.3007 0.675042 38.7768C1.30601 44.253 3.23432 49.5017 6.30127 54.091C9.13742 58.335 12.8723 61.9028 17.2379 64.5473C17.8278 64.9046 18.5897 64.6885 18.9281 64.0876C19.2683 63.4835 19.0513 62.7199 18.4593 62.3588C14.4439 59.9096 11.0074 56.6169 8.39343 52.7055C5.54687 48.446 3.75713 43.5744 3.1715 38.4918C2.58588 33.4091 3.2211 28.2607 5.02491 23.4702C6.82871 18.6797 9.74952 14.3841 13.547 10.9369C17.3444 7.48976 21.9099 4.98958 26.8676 3.64216C31.8254 2.29474 37.0338 2.1386 42.064 3.18659C47.0942 4.23458 51.8026 6.45674 55.8015 9.67017C59.4743 12.6216 62.4523 16.3316 64.5329 20.5381C64.8396 21.1582 65.5773 21.4435 66.2097 21.1633Z" fill="#3465CE"/>
<path d="M50.0918 30.9599C50.6959 30.9599 51.1947 30.4671 51.098 29.8707C51.0071 29.3106 50.8463 28.7626 50.6183 28.2399C50.2441 27.3819 49.6969 26.6103 49.0108 25.9735C48.3248 25.3366 47.5147 24.8482 46.6313 24.5387C45.7479 24.2292 44.8101 24.1054 43.8766 24.1749C42.9431 24.2444 42.034 24.5058 41.2062 24.9428C40.3783 25.3797 39.6496 25.9827 39.0654 26.7141C38.4813 27.4456 38.0544 28.2897 37.8114 29.1937C37.6633 29.7444 37.5855 30.3102 37.5786 30.8776C37.5713 31.4817 38.1376 31.8952 38.735 31.8057C39.3325 31.7162 39.7307 31.1546 39.784 30.5528C39.8076 30.2862 39.8544 30.0215 39.9242 29.7616C40.0891 29.1483 40.3787 28.5757 40.775 28.0794C41.1713 27.5832 41.6658 27.1741 42.2274 26.8777C42.789 26.5812 43.4058 26.4039 44.0391 26.3567C44.6724 26.3096 45.3086 26.3936 45.908 26.6035C46.5073 26.8135 47.0569 27.1449 47.5223 27.5769C47.9878 28.009 48.359 28.5324 48.6129 29.1145C48.7205 29.3611 48.806 29.616 48.8688 29.8762C49.0107 30.4635 49.4876 30.9599 50.0918 30.9599Z" fill="#4880EE"/>
<path d="M23.5095 30.9599C24.1137 30.9599 24.6124 30.4671 24.5157 29.8707C24.4248 29.3106 24.2641 28.7626 24.0361 28.2399C23.6618 27.3819 23.1146 26.6103 22.4286 25.9735C21.7425 25.3366 20.9324 24.8482 20.049 24.5387C19.1656 24.2292 18.2278 24.1054 17.2943 24.1749C16.3608 24.2444 15.4518 24.5058 14.6239 24.9428C13.7961 25.3797 13.0673 25.9827 12.4832 26.7141C11.899 27.4456 11.4721 28.2897 11.2291 29.1937C11.0811 29.7444 11.0032 30.3102 10.9963 30.8776C10.989 31.4817 11.5553 31.8952 12.1528 31.8057C12.7503 31.7162 13.1484 31.1546 13.2017 30.5528C13.2253 30.2862 13.2721 30.0215 13.342 29.7616C13.5068 29.1483 13.7965 28.5757 14.1928 28.0794C14.589 27.5832 15.0835 27.1741 15.6451 26.8777C16.2068 26.5812 16.8235 26.4039 17.4568 26.3567C18.0901 26.3096 18.7263 26.3936 19.3257 26.6035C19.925 26.8135 20.4746 27.1449 20.9401 27.5769C21.4055 28.009 21.7768 28.5324 22.0307 29.1145C22.1382 29.3611 22.2237 29.616 22.2866 29.8762C22.4284 30.4635 22.9054 30.9599 23.5095 30.9599Z" fill="#4880EE"/>
<path d="M20.131 25.7477C20.3777 25.1962 20.1314 24.5397 19.5475 24.3845C18.7431 24.1706 17.9031 24.1054 17.0694 24.1954C15.8716 24.3247 14.7296 24.7698 13.7601 25.4851C12.7907 26.2004 12.0285 27.1602 11.5516 28.2666C11.2197 29.0367 11.0342 29.8585 11.0012 30.6902C10.9772 31.2939 11.5319 31.7229 12.1316 31.6499C12.7314 31.5769 13.1448 31.0264 13.2147 30.4263C13.2663 29.9825 13.3824 29.5466 13.5608 29.1327C13.8843 28.3821 14.4014 27.7309 15.0591 27.2456C15.7168 26.7603 16.4916 26.4584 17.3042 26.3707C17.7523 26.3223 18.2031 26.34 18.6424 26.4216C19.2364 26.5319 19.8843 26.2992 20.131 25.7477Z" fill="#3465CE"/>
<path d="M36.9213 18.7169C37.0959 19.458 36.625 20.2088 35.8644 20.244C34.735 20.2962 33.6012 20.1245 32.5372 19.7342C31.039 19.1845 29.7464 18.226 28.8228 16.9799C27.8992 15.7338 27.3861 14.256 27.3484 12.7334C27.3217 11.654 27.5347 10.5865 27.9678 9.59837C28.2687 8.91171 29.1159 8.72984 29.7583 9.1164C30.446 9.53027 30.6241 10.4364 30.3967 11.2062C30.2568 11.6798 30.1907 12.1729 30.2031 12.6699C30.2275 13.6572 30.5602 14.6155 31.1591 15.4235C31.758 16.2316 32.5962 16.8531 33.5677 17.2095C34.1238 17.4136 34.7093 17.5255 35.2991 17.5435C36.0361 17.566 36.7521 17.9992 36.9213 18.7169Z" fill="#4880EE"/>
<path d="M27.3219 18.7169C27.4966 19.458 27.0256 20.2088 26.2651 20.244C25.1357 20.2962 24.0019 20.1245 22.9378 19.7342C21.4397 19.1845 20.147 18.226 19.2234 16.9799C18.2999 15.7338 17.7868 14.256 17.7491 12.7334C17.7223 11.654 17.9354 10.5865 18.3684 9.59837C18.6693 8.91171 19.5165 8.72984 20.1589 9.1164C20.8466 9.53027 21.0247 10.4364 20.7973 11.2062C20.6575 11.6798 20.5914 12.1729 20.6037 12.6699C20.6281 13.6572 20.9608 14.6155 21.5598 15.4235C22.1587 16.2316 22.9969 16.8531 23.9684 17.2095C24.5245 17.4136 25.11 17.5255 25.6997 17.5435C26.4367 17.566 27.1528 17.9992 27.3219 18.7169Z" fill="#4880EE"/>
<path d="M21.0815 17.0916C20.5457 17.5997 19.6934 17.6066 19.2503 17.0159C18.4441 15.9413 17.9379 14.6821 17.7912 13.3563C17.6457 12.042 17.8601 10.722 18.403 9.5205C18.7115 8.83791 19.5598 8.66531 20.1975 9.05823C20.8807 9.47919 21.0491 10.3871 20.8131 11.1541C20.6228 11.7723 20.5591 12.4241 20.631 13.0738C20.7038 13.7314 20.913 14.3638 21.2413 14.9366C21.6372 15.6275 21.6594 16.5438 21.0815 17.0916Z" fill="#3465CE"/>
<path d="M47.1532 18.7169C47.3279 19.458 46.8569 20.2088 46.0963 20.244C44.967 20.2962 43.8332 20.1245 42.7691 19.7342C41.271 19.1845 39.9783 18.226 39.0547 16.9799C38.1312 15.7338 37.6181 14.256 37.5804 12.7334C37.5536 11.654 37.7667 10.5865 38.1997 9.59837C38.5006 8.91171 39.3478 8.72984 39.9902 9.1164C40.6779 9.53027 40.856 10.4364 40.6286 11.2062C40.4888 11.6798 40.4227 12.1729 40.435 12.6699C40.4594 13.6572 40.7921 14.6155 41.3911 15.4235C41.99 16.2316 42.8282 16.8531 43.7997 17.2095C44.3558 17.4136 44.9413 17.5255 45.531 17.5435C46.268 17.566 46.9841 17.9992 47.1532 18.7169Z" fill="#4880EE"/>
<ellipse cx="45.3841" cy="38.0275" rx="1.79325" ry="2.26793" fill="#3465CE"/>
<ellipse cx="18.8018" cy="38.0275" rx="1.79325" ry="2.26793" fill="#3465CE"/>
<path d="M22.1775 48.8397C23.9873 51.305 27.2784 52.9536 31.0382 52.9536C34.798 52.9536 38.0892 51.305 39.899 48.8397" stroke="#4880EE" stroke-width="2" stroke-linecap="round"/>
<path d="M48.2283 52.1586C50.0404 52.5961 51.1542 54.4202 50.7167 56.2323L47.5182 69.4806C47.478 69.787 47.4222 70.0947 47.348 70.4019L46.797 72.684C45.9734 76.0954 42.5401 78.1933 39.1287 77.3697L38.0541 77.1103C31.8248 75.6062 27.9939 69.337 29.4979 63.1076C30.2499 59.9931 33.3846 58.0777 36.4992 58.8295L40.9305 59.8993C41.5654 60.0526 42.1663 60.2744 42.7292 60.5506L44.1543 54.6479C44.5918 52.8358 46.4161 51.721 48.2283 52.1586Z" fill="white"/>
<path d="M48.2283 52.1586L48.463 51.1865L48.463 51.1865L48.2283 52.1586ZM50.7167 56.2323L51.6888 56.467L50.7167 56.2323ZM47.5182 69.4806L46.5461 69.2459L46.5336 69.2977L46.5267 69.3505L47.5182 69.4806ZM39.1287 77.3697L38.894 78.3418L38.894 78.3418L39.1287 77.3697ZM38.0541 77.1103L37.8194 78.0823L37.8194 78.0823L38.0541 77.1103ZM29.4979 63.1076L28.5258 62.8729L28.5258 62.8729L29.4979 63.1076ZM36.4992 58.8295L36.7339 57.8574L36.7338 57.8574L36.4992 58.8295ZM42.7292 60.5506L42.2887 61.4484L43.4085 61.9979L43.7013 60.7853L42.7292 60.5506ZM44.1543 54.6479L45.1264 54.8826L44.1543 54.6479ZM48.2283 52.1586L47.9936 53.1306C49.2685 53.4385 50.0526 54.722 49.7447 55.9976L50.7167 56.2323L51.6888 56.467C52.2558 54.1183 50.8123 51.7538 48.463 51.1865L48.2283 52.1586ZM50.7167 56.2323L49.7447 55.9976L46.5461 69.2459L47.5182 69.4806L48.4903 69.7153L51.6888 56.467L50.7167 56.2323ZM47.5182 69.4806L46.5267 69.3505C46.4908 69.6241 46.4412 69.8968 46.3759 70.1672L47.348 70.4019L48.3201 70.6366C48.4031 70.2926 48.4652 69.9498 48.5097 69.6106L47.5182 69.4806ZM47.348 70.4019L46.3759 70.1672L45.825 72.4493L46.797 72.684L47.7691 72.9187L48.3201 70.6366L47.348 70.4019ZM46.797 72.684L45.825 72.4493C45.131 75.3238 42.2379 77.0916 39.3634 76.3976L39.1287 77.3697L38.894 78.3418C42.8422 79.2949 46.8159 76.8669 47.7691 72.9187L46.797 72.684ZM39.1287 77.3697L39.3634 76.3976L38.2888 76.1382L38.0541 77.1103L37.8194 78.0823L38.894 78.3418L39.1287 77.3697ZM38.0541 77.1103L38.2888 76.1382C32.5963 74.7638 29.0956 69.0348 30.4699 63.3423L29.4979 63.1076L28.5258 62.8729C26.8922 69.6391 31.0533 76.4487 37.8194 78.0823L38.0541 77.1103ZM29.4979 63.1076L30.4699 63.3424C31.0924 60.7647 33.6868 59.1793 36.2645 59.8016L36.4992 58.8295L36.7338 57.8574C33.0824 56.976 29.4075 59.2216 28.5258 62.8729L29.4979 63.1076ZM36.4992 58.8295L36.2645 59.8016L40.6958 60.8714L40.9305 59.8993L41.1652 58.9273L36.7339 57.8574L36.4992 58.8295ZM40.9305 59.8993L40.6958 60.8714C41.2565 61.0068 41.7886 61.2029 42.2887 61.4484L42.7292 60.5506L43.1698 59.6529C42.544 59.3458 41.8742 59.0985 41.1652 58.9273L40.9305 59.8993ZM42.7292 60.5506L43.7013 60.7853L45.1264 54.8826L44.1543 54.6479L43.1822 54.4133L41.7572 60.3159L42.7292 60.5506ZM44.1543 54.6479L45.1264 54.8826C45.4343 53.6073 46.7183 52.8227 47.9936 53.1306L48.2283 52.1586L48.463 51.1865C46.1139 50.6194 43.7494 52.0642 43.1822 54.4133L44.1543 54.6479Z" fill="#4880EE"/>
<path d="M35.9861 58.7061C33.1546 58.0225 30.305 59.7637 29.6214 62.5952L29.25 64.1333C27.8828 69.7964 31.3653 75.4956 37.0283 76.8628" stroke="#3465CE" stroke-width="2" stroke-linecap="round"/>
</svg>
